{"title":"JUNKies.S01E04.Hovercrash.HDTV.XviD-tNe.avi","uid":6661910,"size":182618112,"categoryP":"video","categoryS":"tv_shows","magnet":"?xt=urn:btih:db3358689a6528187716fb584ed9774938a68149&amp;dn=JUNKies.S01E04.Hovercrash.HDTV.XviD-tNe.avi&amp;tr=udp%3A%2F%2Ftracker.openbittorrent.com%3A80&amp;tr=udp%3A%2F%2Fopen.demonii.com%3A1337&amp;tr=udp%3A%2F%2Ftracker.coppersurfer.tk%3A6969&amp;tr=udp%3A%2F%2Fexodus.desync.com%3A6969","seeders":0,"leechers":0,"uploader":"trialNerror","files":1,"time":1315548517,"description":"JUNKies - Hovercrash\n \nHale runs into trouble after helping two inventors transform a refrigerator into a beer launcher; a high school class hoping to make a hovercraft turn to Jimmy for an engine but discovers their idea is more complicated than they thought.\n \nFormat                           : AVI\nFormat/Info                      : Audio Video Interleave\nFile size                        : 174 MiB\nDuration                         : 21mn 34s\nOverall bit rate                 : 1 129 Kbps\nWriting application              : VirtualDubMod 1.5.10.2 (build 2542/release)\nWriting library                  : VirtualDubMod build 2542/release\n \nVideo\nID                               : 0\nFormat                           : MPEG-4 Visual\nFormat profile                   : Advanced Simple@L5\nFormat settings, BVOP            : 2\nFormat settings, QPel            : No\nFormat settings, GMC             : No warppoints\nFormat settings, Matrix          : Default (H.263)\nCodec ID                         : XVID\nCodec ID/Hint                    : XviD\nDuration                         : 21mn 34s\nBit rate                         : 987 Kbps\nWidth                            : 624 pixels\nHeight                           : 352 pixels\nDisplay aspect ratio             : 16:9\nFrame rate                       : 29.970 fps\nColor space                      : YUV\nChroma subsampling               : 4:2:0\nBit depth                        : 8 bits\nScan type                        : Progressive\nCompression mode                 : Lossy\nBits/(Pixel*Frame)               : 0.150\nStream size                      : 152 MiB (87%)\nWriting library                  : XviD 64\n \nAudio\nID                               : 1\nFormat                           : MPEG Audio\nFormat version                   : Version 1\nFormat profile                   : Layer 3\nMode                             : Joint stereo\nMode extension                   : MS Stereo\nCodec ID                         : 55\nCodec ID/Hint                    : MP3\nDuration                         : 21mn 34s\nBit rate mode                    : Variable\nBit rate                         : 128 Kbps\nChannel(s)                       : 2 channels\nSampling rate                    : 48.0 KHz\nCompression mode                 : Lossy\nStream size                      : 19.8 MiB (11%)\nAlignment                        : Aligned on interleaves\nInterleave, duration             : 24 ms (0.72 video frame)\nInterleave, preload duration     : 497 ms","torrent":{"xt":"urn:btih:db3358689a6528187716fb584ed9774938a68149","amp;dn":"JUNKies.S01E04.Hovercrash.HDTV.XviD-tNe.avi","amp;tr":["udp%3A%2F%2Ftracker.openbittorrent.com%3A80","udp%3A%2F%2Fopen.demonii.com%3A1337","udp%3A%2F%2Ftracker.coppersurfer.tk%3A6969","udp%3A%2F%2Fexodus.desync.com%3A6969"],"infoHash":"db3358689a6528187716fb584ed9774938a68149","infoHashBuffer":{"type":"Buffer","data":[219,51,88,104,154,101,40,24,119,22,251,88,78,217,119,73,56,166,129,73]},"announce":[],"urlList":[]}}